# This file uses centimeters as units for non-parametric coordinates.

mtllib Room.mtl
g default
v 150.000000 -99.999992 224.999969
v 180.000000 -99.999992 224.999969
v 150.000000 330.000000 224.999969
v 180.000000 330.000000 224.999969
v 150.000000 330.000000 -203.940735
v 180.000000 330.000000 -203.940735
v 150.000000 -99.999992 -203.940735
v 180.000000 -99.999992 -203.940735
vt 0.000000 0.254375
vt 0.253748 0.254375
vt 0.253748 0.508750
vt 0.000000 0.508750
vt 0.254117 0.254375
vt 0.507865 0.254375
vt 0.507865 0.508750
vt 0.254117 0.508750
vt 0.967599 0.507496
vt 0.985346 0.507496
vt 0.985346 0.761245
vt 0.967599 0.761245
vt 0.948052 0.508750
vt 0.965799 0.508750
vt 0.965799 0.762498
vt 0.948052 0.762498
vt 0.933391 0.000000
vt 0.951138 0.000000
vt 0.951138 0.254375
vt 0.933391 0.254375
vt 0.948052 0.254375
vt 0.965799 0.254375
vt 0.965799 0.508750
vt 0.948052 0.508750
vn 0.000000 0.000000 1.000000
vn 0.000000 0.000000 1.000000
vn 0.000000 0.000000 1.000000
vn 0.000000 0.000000 1.000000
vn 0.000000 1.000000 0.000000
vn 0.000000 1.000000 0.000000
vn 0.000000 1.000000 0.000000
vn 0.000000 1.000000 0.000000
vn 0.000000 0.000000 -1.000000
vn 0.000000 0.000000 -1.000000
vn 0.000000 0.000000 -1.000000
vn 0.000000 0.000000 -1.000000
vn 0.000000 -1.000000 0.000000
vn 0.000000 -1.000000 0.000000
vn 0.000000 -1.000000 0.000000
vn 0.000000 -1.000000 0.000000
vn 1.000000 0.000000 0.000000
vn 1.000000 0.000000 0.000000
vn 1.000000 0.000000 0.000000
vn 1.000000 0.000000 0.000000
vn -1.000000 0.000000 0.000000
vn -1.000000 0.000000 0.000000
vn -1.000000 0.000000 0.000000
vn -1.000000 0.000000 0.000000
s off
g pCube6
usemtl aiStandardSurface2SG
f 1/17/1 2/18/2 4/19/3 3/20/4
f 3/9/5 4/10/6 6/11/7 5/12/8
f 5/21/9 6/22/10 8/23/11 7/24/12
f 7/13/13 8/14/14 2/15/15 1/16/16
f 2/1/17 8/2/18 6/3/19 4/4/20
f 7/5/21 1/6/22 3/7/23 5/8/24
g default
v -150.000000 334.952240 225.000000
v 150.000000 334.952240 225.000000
v -150.000000 334.952240 -203.940704
v 150.000000 334.952240 -203.940704
v -150.000000 256.792511 -203.940704
v 150.000000 256.792511 -203.940704
v -150.000000 334.952240 210.689087
v 150.000000 334.952240 210.689087
v 150.000000 256.792511 210.689133
v -150.000000 256.792511 210.689133
v -150.000000 267.603607 225.000000
v 150.000000 267.603607 225.000000
v 150.000000 267.603607 210.689102
v 150.000000 267.603607 -203.940704
v -150.000000 267.603607 -203.940704
v -150.000000 267.603607 210.689102
vt 0.916099 0.245282
vt 0.876257 0.245282
vt 0.876257 0.000000
vt 0.916099 0.000000
vt 0.876257 0.253748
vt 0.916099 0.253748
vt 0.869862 0.245282
vt 0.869862 0.000000
vt 0.866484 0.752779
vt 0.866484 0.507496
vt 0.906325 0.507497
vt 0.906325 0.752779
vt 0.860088 0.752779
vt 0.860088 0.507496
vt 0.866484 0.499031
vt 0.906325 0.499031
vt 0.434931 0.517216
vt 0.612402 0.517216
vt 0.612402 0.762498
vt 0.434931 0.762498
vt 0.434931 0.508750
vt 0.612402 0.508750
vt 0.689048 0.253748
vt 0.866519 0.253748
vt 0.866519 0.499031
vt 0.689048 0.499031
vt 0.252809 0.686220
vt 0.244343 0.686220
vt 0.244343 0.508750
vt 0.252809 0.508750
vt 0.180814 0.939969
vt 0.180814 0.762498
vt 0.220655 0.762498
vt 0.220655 0.939969
vt 0.860088 0.930250
vt 0.860088 0.752779
vt 0.899930 0.752779
vt 0.899930 0.930250
vt 0.906325 0.752779
vt 0.906325 0.930250
vt 0.993542 0.807908
vt 0.987147 0.807908
vt 0.987147 0.630436
vt 0.993542 0.630436
vn 0.000000 0.000000 1.000000
vn 0.000000 0.000000 1.000000
vn 0.000000 0.000000 1.000000
vn 0.000000 0.000000 1.000000
vn 0.000000 1.000000 0.000000
vn 0.000000 1.000000 0.000000
vn 0.000000 1.000000 0.000000
vn 0.000000 1.000000 0.000000
vn 0.000000 0.000000 -1.000000
vn 0.000000 0.000000 -1.000000
vn 0.000000 0.000000 -1.000000
vn 0.000000 0.000000 -1.000000
vn 0.000000 -1.000000 0.000000
vn 0.000000 -1.000000 0.000000
vn 0.000000 -1.000000 0.000000
vn 0.000000 -1.000000 0.000000
vn 1.000000 0.000000 0.000000
vn 1.000000 -0.000000 0.000000
vn 1.000000 -0.000000 0.000000
vn 1.000000 0.000000 0.000000
vn -1.000000 -0.000000 0.000000
vn -1.000000 -0.000000 0.000000
vn -1.000000 0.000000 0.000000
vn -1.000000 0.000000 0.000000
vn 0.000000 1.000000 0.000000
vn 0.000000 1.000000 0.000000
vn 1.000000 0.000000 0.000000
vn 1.000000 0.000000 0.000000
vn -1.000000 0.000000 0.000000
vn -1.000000 0.000000 0.000000
vn 1.000000 -0.000001 0.000000
vn 1.000000 -0.000001 0.000000
vn 0.000000 0.000000 -1.000000
vn 0.000000 0.000000 -1.000000
vn -1.000000 -0.000001 0.000000
vn -1.000000 -0.000001 0.000000
vn 0.000000 -1.000000 0.000000
vn 0.000000 -1.000000 0.000000
vn 0.000000 -1.000000 0.000000
vn 0.000000 -1.000000 0.000000
vn 0.000000 0.000003 1.000000
vn 0.000000 0.000003 1.000000
vn 0.000000 0.000003 1.000000
vn 0.000000 0.000003 1.000000
s off
g pCube5
usemtl aiStandardSurface2SG
f 19/55/25 20/56/26 10/57/27 9/58/28
s 1
f 15/41/29 16/42/30 12/43/31 11/44/32
s 2
f 11/59/33 12/60/34 22/61/35 23/62/36
s off
f 13/47/37 14/48/38 17/49/39 18/50/40
s 3
f 16/25/41 21/26/42 22/27/43 12/28/44
s 4
f 23/33/45 24/34/46 15/35/47 11/36/48
s 1
f 9/45/49 10/46/50 16/42/30 15/41/29
s 3
f 20/29/51 21/26/42 16/25/41 10/30/52
s 4
f 15/35/47 24/34/46 19/39/53 9/40/54
s 3
f 22/27/43 21/26/42 17/31/55 14/32/56
s 2
f 23/62/36 22/61/35 14/63/57 13/64/58
s 4
f 13/37/59 18/38/60 24/34/46 23/33/45
s off
f 19/51/61 24/52/62 21/53/63 20/54/64
f 24/65/65 18/66/66 17/67/67 21/68/68
g default
v -180.000000 -100.000038 224.999969
v -150.000000 -100.000038 224.999969
v -180.000000 330.000092 224.999969
v -150.000000 330.000092 224.999969
v -180.000000 330.000092 -203.940735
v -150.000000 330.000092 -203.940735
v -180.000000 -100.000038 -203.940735
v -150.000000 -100.000038 -203.940735
vt 0.000000 0.000000
vt 0.253748 0.000000
vt 0.253748 0.254375
vt 0.000000 0.254375
vt 0.254117 0.000000
vt 0.507865 0.000000
vt 0.507865 0.254375
vt 0.254117 0.254375
vt 0.967599 0.253748
vt 0.985346 0.253748
vt 0.985346 0.507496
vt 0.967599 0.507496
vt 0.952939 0.000000
vt 0.970686 0.000000
vt 0.970686 0.253748
vt 0.952939 0.253748
vt 0.908957 0.685594
vt 0.926704 0.685594
vt 0.926704 0.939969
vt 0.908957 0.939969
vt 0.908957 0.431219
vt 0.926704 0.431219
vt 0.926704 0.685594
vt 0.908957 0.685594
vn 0.000000 0.000000 1.000000
vn 0.000000 0.000000 1.000000
vn 0.000000 0.000000 1.000000
vn 0.000000 0.000000 1.000000
vn 0.000000 1.000000 0.000000
vn 0.000000 1.000000 0.000000
vn 0.000000 1.000000 0.000000
vn 0.000000 1.000000 0.000000
vn 0.000000 0.000000 -1.000000
vn 0.000000 0.000000 -1.000000
vn 0.000000 0.000000 -1.000000
vn 0.000000 0.000000 -1.000000
vn 0.000000 -1.000000 0.000000
vn 0.000000 -1.000000 0.000000
vn 0.000000 -1.000000 0.000000
vn 0.000000 -1.000000 0.000000
vn 1.000000 0.000000 0.000000
vn 1.000000 0.000000 0.000000
vn 1.000000 0.000000 0.000000
vn 1.000000 0.000000 0.000000
vn -1.000000 0.000000 0.000000
vn -1.000000 0.000000 0.000000
vn -1.000000 0.000000 0.000000
vn -1.000000 0.000000 0.000000
s off
g pCube7
usemtl aiStandardSurface2SG
f 25/85/69 26/86/70 28/87/71 27/88/72
f 27/77/73 28/78/74 30/79/75 29/80/76
f 29/89/77 30/90/78 32/91/79 31/92/80
f 31/81/81 32/82/82 26/83/83 25/84/84
f 26/69/85 32/70/86 30/71/87 28/72/88
f 31/73/89 25/74/90 27/75/91 29/76/92
g default
v -150.000000 -100.000061 -203.940643
v 150.000000 -100.000061 -203.940643
v -150.000000 330.000153 -203.940643
v 150.000000 330.000153 -203.940643
v -150.000000 330.000153 -225.668365
v 150.000000 330.000153 -225.668365
v -150.000000 -100.000061 -225.668365
v 150.000000 -100.000061 -225.668365
v -135.241364 -100.000046 -203.940643
v -135.241364 -100.000046 -225.668365
v -135.241364 330.000122 -225.668365
v -135.241364 330.000122 -203.940643
v -24.350876 -100.000046 -203.940643
v -24.350876 330.000122 -203.940643
v -24.350876 330.000122 -225.668365
v -24.350876 -100.000046 -225.668365
v -150.000000 205.699966 -203.940643
v -135.241364 205.699966 -203.940643
v -24.350876 205.699966 -203.940643
v 150.000000 205.699966 -203.940643
v 150.000000 205.699966 -225.668365
v -24.350876 205.699966 -225.668365
v -135.241364 205.699966 -225.668365
v -150.000000 205.699966 -225.668365
v -150.000000 -0.000036 -203.940643
v -135.241364 -0.000029 -203.940643
v -24.350876 -0.000029 -203.940643
v 150.000000 -0.000036 -203.940643
v 150.000000 -0.000044 -225.668365
v -24.350876 -0.000029 -225.668365
v -135.241364 -0.000029 -225.668365
v -150.000000 -0.000044 -225.668365
vt 0.987147 0.180843
vt 1.000000 0.180843
vt 1.000000 0.254375
vt 0.987147 0.254375
vt 0.987147 0.059157
vt 1.000000 0.059157
vt 0.987147 0.000000
vt 1.000000 0.000000
vt 0.987147 0.435218
vt 1.000000 0.435218
vt 1.000000 0.508750
vt 0.987147 0.508750
vt 0.987147 0.313532
vt 1.000000 0.313532
vt 0.987147 0.254375
vt 1.000000 0.254375
vt 0.946244 0.254375
vt 0.946244 0.376061
vt 0.933391 0.376061
vt 0.933391 0.254375
vt 0.987147 0.630436
vt 0.987147 0.508750
vt 1.000000 0.508750
vt 1.000000 0.630436
vt 0.931584 0.168740
vt 0.918730 0.168740
vt 0.918730 0.103141
vt 0.931584 0.103141
vt 0.918730 0.177471
vt 0.931584 0.177471
vt 0.918730 0.000000
vt 0.931584 0.000000
vt 0.985339 0.168740
vt 0.972486 0.168740
vt 0.972486 0.103141
vt 0.985339 0.103141
vt 0.972486 0.177471
vt 0.985339 0.177471
vt 0.972486 0.000000
vt 0.985339 0.000000
vt 0.918730 0.243070
vt 0.918730 0.177471
vt 0.931584 0.177471
vt 0.931584 0.243070
vt 0.985339 0.177471
vt 0.985339 0.243070
vt 0.972486 0.243070
vt 0.972486 0.177471
vt 0.516965 0.508750
vt 0.516965 0.435218
vt 0.582564 0.435218
vt 0.582564 0.508750
vt 0.508234 0.435218
vt 0.508234 0.508750
vt 0.685705 0.435218
vt 0.685705 0.508750
vt 0.508234 0.313532
vt 0.516965 0.313532
vt 0.582564 0.313532
vt 0.685705 0.313532
vt 0.508234 0.254375
vt 0.516965 0.254375
vt 0.582564 0.254375
vt 0.685705 0.254375
vt 0.582564 0.073532
vt 0.516965 0.073532
vt 0.516965 0.000000
vt 0.582564 0.000000
vt 0.508234 0.000000
vt 0.508234 0.073532
vt 0.685705 0.073532
vt 0.685705 0.000000
vt 0.516965 0.195218
vt 0.508234 0.195218
vt 0.685705 0.195218
vt 0.582564 0.195218
vt 0.516965 0.254375
vt 0.508234 0.254375
vt 0.582564 0.254375
vt 0.685705 0.254375
vn 0.000000 0.000000 1.000000
vn 0.000000 0.000000 1.000000
vn -0.000000 0.000000 1.000000
vn -0.000000 0.000000 1.000000
vn 0.000000 1.000000 0.000000
vn 0.000000 1.000000 0.000000
vn -0.000000 1.000000 0.000000
vn -0.000000 1.000000 0.000000
vn 0.000000 0.000000 -1.000000
vn -0.000000 0.000000 -1.000000
vn -0.000000 0.000000 -1.000000
vn 0.000000 0.000000 -1.000000
vn 0.000000 -1.000000 0.000000
vn 0.000000 -1.000000 0.000000
vn -0.000000 -1.000000 0.000000
vn -0.000000 -1.000000 0.000000
vn 1.000000 0.000000 0.000000
vn 1.000000 0.000000 0.000000
vn 1.000000 0.000000 0.000000
vn 1.000000 0.000000 0.000000
vn -1.000000 0.000000 0.000000
vn -1.000000 0.000000 0.000000
vn -1.000000 0.000000 0.000000
vn -1.000000 0.000000 0.000000
vn 0.000001 -1.000000 0.000000
vn 0.000001 -1.000000 0.000000
vn -0.000001 0.000000 -1.000000
vn -0.000000 0.000000 -1.000000
vn 0.000002 1.000000 0.000000
vn 0.000002 1.000000 0.000000
vn 0.000000 0.000000 1.000000
vn 0.000000 0.000000 1.000000
vn -0.000000 0.000000 1.000000
vn -0.000000 0.000000 1.000000
vn -0.000000 1.000000 0.000000
vn -0.000000 1.000000 0.000000
vn 0.000000 0.000000 -1.000000
vn 0.000000 0.000000 -1.000000
vn -0.000000 -1.000000 0.000000
vn -0.000000 -1.000000 0.000000
vn 0.000000 0.000000 1.000000
vn 0.000000 0.000000 1.000000
vn -0.000000 0.000000 1.000000
vn -0.000000 0.000000 1.000000
vn 1.000000 0.000000 0.000000
vn 1.000000 0.000000 0.000000
vn -0.000000 0.000000 -1.000000
vn -0.000000 0.000000 -1.000000
vn 0.000000 0.000000 -1.000000
vn 0.000000 0.000000 -1.000000
vn -1.000000 0.000000 0.000000
vn -1.000000 0.000000 0.000000
vn 0.000001 0.000000 1.000000
vn 0.000000 0.000000 1.000000
vn -0.000000 0.000000 1.000000
vn -0.000000 0.000000 1.000000
vn 1.000000 0.000000 0.000000
vn 1.000000 0.000000 0.000000
vn -0.000000 0.000000 -1.000000
vn -0.000000 0.000000 -1.000000
vn 0.000000 0.000000 -1.000000
vn 0.000000 0.000000 -1.000000
vn -1.000000 0.000000 0.000000
vn -1.000000 0.000000 0.000000
vn 0.000000 1.000000 0.000000
vn 0.000000 1.000000 0.000000
vn 0.000000 1.000000 0.000000
vn 0.000000 1.000000 0.000000
vn -1.000000 0.000000 0.000000
vn -1.000000 0.000000 0.000000
vn -1.000000 0.000000 0.000000
vn -1.000000 0.000000 0.000000
vn 0.000000 -1.000000 0.000000
vn 0.000000 -1.000000 0.000000
vn 0.000000 -1.000000 0.000000
vn 0.000000 -1.000000 0.000000
vn 1.000000 0.000000 0.000000
vn 1.000000 0.000000 0.000000
vn 1.000000 0.000000 0.000000
vn 1.000000 0.000000 0.000000
s 1
g polySurface14
usemtl aiStandardSurface2SG
f 44/141/93 50/142/94 51/143/95 46/144/96
s 2
f 43/117/97 44/118/98 46/119/99 47/120/100
s 3
f 54/157/101 55/158/102 43/159/103 47/160/104
s 4
f 41/125/105 42/126/106 48/127/107 45/128/108
s 5
f 52/93/109 53/94/110 38/95/111 36/96/112
s 6
f 56/101/113 49/102/114 35/103/115 37/104/116
s 4
f 39/129/117 42/126/106 41/125/105 33/130/118
s 3
f 37/161/119 43/159/103 55/158/102 56/162/120
s 2
f 35/121/121 44/118/98 43/117/97 37/122/122
s 1
f 49/145/123 50/142/94 44/141/93 35/146/124
f 46/144/96 51/143/95 52/147/125 36/148/126
s 2
f 47/120/100 46/119/99 36/123/127 38/124/128
s 3
f 53/163/129 54/157/101 47/160/104 38/164/130
s 4
f 45/128/108 48/127/107 40/131/131 34/132/132
s 1
f 57/149/133 58/150/134 50/142/94 49/145/123
f 52/147/125 51/143/95 59/151/135 60/152/136
s 5
f 60/97/137 61/98/138 53/94/110 52/93/109
s 3
f 61/167/139 62/168/140 54/157/101 53/163/129
f 56/162/120 55/158/102 63/165/141 64/166/142
s 6
f 64/105/143 57/106/144 49/102/114 56/101/113
s 1
f 33/153/145 41/154/146 58/150/134 57/149/133
f 59/151/135 58/150/134 41/154/146 45/155/147
f 60/152/136 59/151/135 45/155/147 34/156/148
s 5
f 34/99/149 40/100/150 61/98/138 60/97/137
s 3
f 48/171/151 62/168/140 61/167/139 40/172/152
f 42/169/153 63/165/141 62/168/140 48/171/151
f 64/166/142 63/165/141 42/169/153 39/170/154
s 6
f 39/107/155 33/108/156 57/106/144 64/105/143
s off
f 58/133/157 59/134/158 62/135/159 63/136/160
f 59/109/161 51/110/162 54/111/163 62/112/164
f 51/137/165 50/138/166 55/139/167 54/140/168
f 50/113/169 58/114/170 63/115/171 55/116/172
g default
v -150.000000 -100.000031 255.000000
v 150.000000 -100.000031 255.000000
v -150.000000 330.000061 255.000000
v 150.000000 330.000061 255.000000
v -150.000000 330.000061 225.000000
v 150.000000 330.000061 225.000000
v -150.000000 -100.000031 225.000000
v 150.000000 -100.000031 225.000000
v -150.000000 222.626221 255.000000
v 150.000000 222.626221 255.000000
v 150.000000 222.626221 225.000000
v -150.000000 222.626221 225.000000
v -150.000000 120.454361 255.000000
v 150.000000 120.454361 255.000000
v 150.000000 120.454361 225.000000
v -150.000000 120.454361 225.000000
v -108.370789 -100.000031 255.000000
v -108.370789 -100.000031 225.000000
v -108.370789 120.454361 225.000000
v -108.370789 222.626221 225.000000
v -108.370789 330.000061 225.000000
v -108.370789 330.000061 255.000000
v -108.370789 222.626221 255.000000
v -108.370789 120.454361 255.000000
v 51.092915 222.626221 225.000000
v 51.092915 120.454361 225.000000
v 51.092918 -100.000031 225.000000
v 51.092918 -100.000031 255.000000
v 51.092918 120.454361 255.000000
v 51.092918 222.626221 255.000000
v 51.092918 330.000061 255.000000
v 51.092918 330.000061 225.000000
vt 0.928504 0.876450
vt 0.946251 0.876450
vt 0.946251 0.939969
vt 0.928504 0.939969
vt 0.928504 0.816008
vt 0.946251 0.816008
vt 0.928504 0.685594
vt 0.946251 0.685594
vt 0.928504 0.622075
vt 0.946251 0.622075
vt 0.946251 0.685594
vt 0.928504 0.685594
vt 0.928504 0.561633
vt 0.946251 0.561633
vt 0.928504 0.431219
vt 0.946251 0.431219
vt 0.557103 0.194416
vt 0.557103 0.133974
vt 0.574850 0.133974
vt 0.574850 0.194416
vt 0.574850 0.073532
vt 0.574850 0.133974
vt 0.557103 0.133974
vt 0.557103 0.073532
vt 0.985346 0.914089
vt 0.967599 0.914089
vt 0.967599 0.819755
vt 0.985346 0.819755
vt 0.967599 0.938716
vt 0.985346 0.938716
vt 0.967599 0.761245
vt 0.985346 0.761245
vt 0.965799 0.915342
vt 0.948052 0.915342
vt 0.948052 0.821008
vt 0.965799 0.821008
vt 0.948052 0.939969
vt 0.965799 0.939969
vt 0.948052 0.762498
vt 0.965799 0.762498
vt 0.555302 0.073532
vt 0.555302 0.167866
vt 0.537555 0.167866
vt 0.537555 0.073532
vt 0.518008 0.167866
vt 0.518008 0.073532
vt 0.535755 0.073532
vt 0.535755 0.167866
vt 0.278744 0.763125
vt 0.278744 0.699606
vt 0.373077 0.699606
vt 0.373077 0.763125
vt 0.254117 0.699606
vt 0.254117 0.763125
vt 0.431588 0.699606
vt 0.431588 0.763125
vt 0.254117 0.639164
vt 0.278744 0.639164
vt 0.373077 0.639164
vt 0.431588 0.639164
vt 0.254117 0.508750
vt 0.278744 0.508750
vt 0.373077 0.508750
vt 0.431588 0.508750
vt 0.024627 0.572269
vt 0.024627 0.508750
vt 0.118960 0.508750
vt 0.118960 0.572269
vt 0.000000 0.508750
vt 0.000000 0.572269
vt 0.177471 0.508750
vt 0.177471 0.572269
vt 0.024627 0.632711
vt 0.000000 0.632711
vt 0.118960 0.632711
vt 0.177471 0.632711
vt 0.024627 0.763125
vt 0.000000 0.763125
vt 0.118960 0.763125
vt 0.177471 0.763125
vn 0.000000 0.000000 1.000000
vn 0.000000 0.000000 1.000000
vn 0.000000 0.000000 1.000000
vn 0.000000 0.000000 1.000000
vn 0.000000 1.000000 0.000000
vn 0.000000 1.000000 0.000000
vn 0.000000 1.000000 0.000000
vn 0.000000 1.000000 0.000000
vn 0.000000 0.000000 -1.000000
vn 0.000000 0.000000 -1.000000
vn 0.000000 0.000000 -1.000000
vn 0.000000 0.000000 -1.000000
vn 0.000000 -1.000000 0.000000
vn 0.000000 -1.000000 0.000000
vn 0.000000 -1.000000 0.000000
vn 0.000000 -1.000000 0.000000
vn 1.000000 0.000000 0.000000
vn 1.000000 0.000000 0.000000
vn 1.000000 0.000000 0.000000
vn 1.000000 0.000000 0.000000
vn -1.000000 0.000000 0.000000
vn -1.000000 0.000000 0.000000
vn -1.000000 0.000000 0.000000
vn -1.000000 0.000000 0.000000
vn 1.000000 0.000000 0.000000
vn 1.000000 0.000000 0.000000
vn -1.000000 0.000000 0.000000
vn -1.000000 0.000000 0.000000
vn 0.000000 0.000000 1.000000
vn 0.000000 0.000000 1.000000
vn 0.000000 0.000000 1.000000
vn 0.000000 0.000000 1.000000
vn 1.000000 0.000000 0.000000
vn 1.000000 0.000000 0.000000
vn 0.000000 0.000000 -1.000000
vn 0.000000 0.000000 -1.000000
vn 0.000000 0.000000 -1.000000
vn 0.000000 0.000000 -1.000000
vn -1.000000 0.000000 0.000000
vn -1.000000 0.000000 0.000000
vn 0.000000 -1.000000 0.000000
vn 0.000000 -1.000000 0.000000
vn 0.000000 0.000000 -1.000000
vn 0.000000 0.000000 -1.000000
vn 0.000000 0.000000 -1.000000
vn 0.000000 0.000000 -1.000000
vn 0.000000 1.000000 0.000000
vn 0.000000 1.000000 0.000000
vn 0.000000 0.000000 1.000000
vn 0.000000 0.000000 1.000000
vn 0.000000 0.000000 1.000000
vn 0.000000 0.000000 1.000000
vn 0.000000 0.000000 -1.000000
vn 0.000000 0.000000 -1.000000
vn 0.000000 0.000000 -1.000000
vn 0.000000 -1.000000 0.000000
vn 0.000000 -1.000000 0.000000
vn 0.000000 0.000000 1.000000
vn 0.000000 0.000000 1.000000
vn 0.000000 0.000000 1.000000
vn 0.000000 0.000000 1.000000
vn 0.000000 1.000000 0.000000
vn 0.000000 1.000000 0.000000
vn 0.000000 0.000000 -1.000000
vn 0.000000 -1.000000 0.000001
vn 0.000000 -1.000000 0.000001
vn 0.000000 -1.000000 0.000001
vn 0.000000 -1.000000 0.000001
vn 1.000000 0.000000 0.000000
vn 1.000000 0.000000 0.000000
vn 1.000000 0.000000 0.000000
vn 1.000000 0.000000 0.000000
vn 0.000000 1.000000 -0.000000
vn 0.000000 1.000000 -0.000000
vn 0.000000 1.000000 -0.000000
vn 0.000000 1.000000 -0.000000
vn -1.000000 0.000000 0.000000
vn -1.000000 0.000000 0.000000
vn -1.000000 0.000000 0.000000
vn -1.000000 0.000000 0.000000
s 1
g polySurface9
usemtl aiStandardSurface2SG
f 86/221/173 87/222/174 94/223/175 95/224/176
s 2
f 85/197/177 86/198/178 95/199/179 96/200/180
s 3
f 84/237/181 85/238/182 96/239/183 89/240/184
s 4
f 81/205/185 82/206/186 91/207/187 92/208/188
s 5
f 74/173/189 75/174/190 70/175/191 68/176/192
s 6
f 76/181/193 73/182/194 67/183/195 69/184/196
s 5
f 78/177/197 79/178/198 75/174/190 74/173/189
s 6
f 80/185/199 77/186/200 73/182/194 76/181/193
s 1
f 88/230/201 81/234/202 92/235/203 93/231/204
s 5
f 66/179/205 72/180/206 79/178/198 78/177/197
s 3
f 82/249/207 83/245/208 90/247/209 91/251/210
s 6
f 71/187/211 65/188/212 77/186/200 80/185/199
s 4
f 71/209/213 82/206/186 81/205/185 65/210/214
s 3
f 80/246/215 83/245/208 82/249/207 71/250/216
f 76/242/217 84/237/181 83/245/208 80/246/215
f 69/241/218 85/238/182 84/237/181 76/242/217
s 2
f 67/201/219 86/198/178 85/197/177 69/202/220
s 1
f 73/225/221 87/222/174 86/221/173 67/226/222
f 77/229/223 88/230/201 87/222/174 73/225/221
f 65/233/224 81/234/202 88/230/201 77/229/223
s 3
f 90/247/209 89/240/184 75/244/225 79/248/226
f 91/251/210 90/247/209 79/248/226 72/252/227
s 4
f 92/208/188 91/207/187 72/211/228 66/212/229
s 1
f 93/231/204 92/235/203 66/236/230 78/232/231
f 94/223/175 93/231/204 78/232/231 74/227/232
f 95/224/176 94/223/175 74/227/232 68/228/233
s 2
f 96/200/180 95/199/179 68/203/234 70/204/235
s 3
f 89/240/184 96/239/183 70/243/236 75/244/225
s off
f 94/213/237 87/214/238 84/215/239 89/216/240
f 87/189/241 88/190/242 83/191/243 84/192/244
f 88/217/245 93/218/246 90/219/247 83/220/248
f 93/193/249 94/194/250 89/195/251 90/196/252
g default
v -150.000000 -100.000000 225.000000
v 150.000000 -100.000000 225.000000
v -150.000000 0.000000 225.000000
v 150.000000 0.000000 225.000000
v -150.000000 0.000000 -203.940704
v 150.000000 0.000000 -203.940704
v -150.000000 -100.000000 -203.940704
v 150.000000 -100.000000 -203.940704
vt 0.796559 0.752779
vt 0.796559 0.499031
vt 0.855716 0.499031
vt 0.855716 0.752779
vt 0.180814 0.762498
vt 0.180814 0.508750
vt 0.239971 0.508750
vt 0.239971 0.762498
vt 0.615745 0.508750
vt 0.793216 0.508750
vt 0.793216 0.762498
vt 0.615745 0.762498
vt 0.689048 0.000000
vt 0.866519 0.000000
vt 0.866519 0.253748
vt 0.689048 0.253748
vt 0.869862 0.431219
vt 0.869862 0.253748
vt 0.929019 0.253748
vt 0.929019 0.431219
vt 0.796559 0.930250
vt 0.796559 0.752779
vt 0.855716 0.752779
vt 0.855716 0.930250
vn 0.000000 0.000000 1.000000
vn 0.000000 0.000000 1.000000
vn 0.000000 0.000000 1.000000
vn 0.000000 0.000000 1.000000
vn 0.000000 1.000000 0.000000
vn 0.000000 1.000000 0.000000
vn 0.000000 1.000000 0.000000
vn 0.000000 1.000000 0.000000
vn 0.000000 0.000000 -1.000000
vn 0.000000 0.000000 -1.000000
vn 0.000000 0.000000 -1.000000
vn 0.000000 0.000000 -1.000000
vn 0.000000 -1.000000 0.000000
vn 0.000000 -1.000000 0.000000
vn 0.000000 -1.000000 0.000000
vn 0.000000 -1.000000 0.000000
vn 1.000000 0.000000 0.000000
vn 1.000000 0.000000 0.000000
vn 1.000000 0.000000 0.000000
vn 1.000000 0.000000 0.000000
vn -1.000000 0.000000 0.000000
vn -1.000000 0.000000 0.000000
vn -1.000000 0.000000 0.000000
vn -1.000000 0.000000 0.000000
s off
g pCube1
usemtl aiStandardSurface2SG
f 97/269/253 98/270/254 100/271/255 99/272/256
f 99/261/257 100/262/258 102/263/259 101/264/260
f 101/273/261 102/274/262 104/275/263 103/276/264
f 103/265/265 104/266/266 98/267/267 97/268/268
f 98/253/269 104/254/270 102/255/271 100/256/272
f 103/257/273 97/258/274 99/259/275 101/260/276
